<svg version="1.1" id="Layer_1" xmlns="http://www.w3.org/2000/svg" xmlns:xlink="http://www.w3.org/1999/xlink" x="0" y="0" viewBox="0 0 200 80" xml:space="preserve"><style>.st0{opacity:.7}</style><g class="st0"><defs><path id="SVGID_1_" class="st0" d="M77.2 31.4c4.7 4.7 4.7 12.4 0 17.2-4.7 4.7-12.4 4.7-17.2 0-4.7-4.7-4.7-12.4 0-17.2 4.8-4.7 12.5-4.7 17.2 0zm-8.5-11.6c5.2 0 10.3 2 14.3 5.9 7.9 7.9 7.9 20.7 0 28.6-7.9 7.9-20.7 7.9-28.6 0-7.9-7.9-7.9-20.7 0-28.6 3.9-3.9 9.1-5.9 14.3-5.9zm51 11.6c4.7 4.7 4.7 12.4 0 17.2-4.7 4.7-12.4 4.7-17.2 0-4.7-4.7-4.7-12.4 0-17.2 4.8-4.7 12.5-4.7 17.2 0zm5.7-5.7c7.9 7.9 7.9 20.7 0 28.6-7.9 7.9-20.7 7.9-28.6 0-7.9-7.9-7.9-20.7 0-28.6 3.9-3.9 9.1-5.9 14.3-5.9 5.2 0 10.4 2 14.3 5.9zM18.1 60.1l2 .1h30.3l-.1-2c-.3-3.3-2.6-5.8-6-6l-2-.1H24.2l24.3-24.3-.1-2c-.2-3.4-2.6-5.8-6-6l-2-.1H10.1l.1 2c.3 3.3 2.7 5.8 6 6l2 .1h18.2L12 52.1l.1 2c.2 3.4 2.6 5.8 6 6zm138.5-28.2c.7 1.2.9 2.5 1 4.1l.1 2v14.2l.1 2c.2 3.3 2.6 5.8 6 6l2 .1V38l.1-2c.1-1.5.3-2.9 1-4.1 1.4-2.4 4-4 7-4s5.6 1.6 7 4c.7 1.2.9 2.6 1 4l.1 2v14.2l.1 2c.2 3.3 2.6 5.8 6 6l2 .1V36c0-8.9-7.2-16.2-16.2-16.2-4.8 0-9.2 2.1-12.1 5.5-3-3.4-7.3-5.5-12.1-5.5-3.4 0-6.5 1-9.1 2.8-1.6-1.8-5.1-2.8-7.1-2.8v40.4l2-.1c3.4-.2 5.8-2.6 6-6l.1-2V38l.1-2c.1-1.5.3-2.9 1-4.1 1.4-2.4 4-4 7-4 2.8 0 5.5 1.6 6.9 4z"/></defs><use xlink:href="#SVGID_1_" overflow="visible" fill-rule="evenodd" clip-rule="evenodd" fill="#020202"/><clipPath id="SVGID_2_"><use xlink:href="#SVGID_1_" overflow="visible"/></clipPath></g></svg>