<svg version="1.1" id="Layer_1" xmlns="http://www.w3.org/2000/svg" x="0" y="0" viewBox="0 0 580 410.5" xml:space="preserve"><style>.st0{fill:#fff}</style><path class="st0" d="M281.7 251.2c-.4 2.9-.9 5.9-1.3 9.1-14.3-2.8-28.3-5.6-42.2-8.3-1.1-1.8.7-3.3-.1-5.1-2.4-1-5 1.4-7.6 0-.2-2.7.8-5.1 1.6-7.8 6.4-.8 12.7-1.7 20.1-2.6-6.1-4.1-11.2-7.7-16.4-11.2-.6-2 .3-3.6.9-5.7 6.1-.8 12.4-1.6 19.5-2.5-5.4-4.8-11.4-7.4-16.7-11.4.6-2.6 1.3-5.1 2.1-8.3 10.5 6.8 20.7 13.3 30.7 19.8.6 2.3 0 4.1-1 6-6.2.9-12.4 1.8-19.5 2.8 5.2 4.7 10.8 7.7 15.9 11.3.6 2-.3 3.7-.8 6-6.2.8-12.6 1.5-19 2.3 0 .3 0 .6-.1.9 8.6 1.7 17.2 3.4 26.2 5.2 5.1-34.5 10.2-68.7 15.3-103.5-3.4 1-6.6 1.5-8.3-2.1-1.1-2.2-.6-4.3 1.1-5.9 2.5-2.3 5.2-1.7 7.9.9.8-2.7.4-5.3 1.9-7.6 2.1.2 4.3.4 7 .7-2.9 19.1-5.6 37.7-8.5 56.3 3.1 1.4 6.1.6 9 .6 6.5.1 13 .1 19.5 0 11.6-.1 13.1 1 17.1 12.4.7-3.5.9-6 1.7-8.4.9-2.8 2.2-5.6 3.6-8.2 2.1-3.8 5.2-6.9 9.8-6.8 4.9.2 8.1 3.4 10.3 7.7 2.3 4.5 3.6 9.3 4.2 14.2 7.9 2.8 9.9 5.6 9.9 13.9v37c0 2.8 0 5.6-2.6 8-3.4-8.4-9-12.9-18.2-11.5-7.2 1.1-11 5.6-13 15.3h-18.6c-1.2-5-2.7-10.3-7.9-13.3-3-1.7-6.1-2.6-9.5-2.3-7.9.8-12.5 5.6-14.6 15.2-6.4-1.9-8.1-4.4-8.6-12.6.8-1.3.4-2.6-.3-5-.2 2.1-.3 3.3-.5 4.5zm-78.3 11.6c-2.8 6.9-5.1 12.7-7.4 18.4-1.8 1-3.6.5-5.8.5-4.1-11.5-8.3-22.9-12.6-34.8h8.6c2.2 6 4.5 12 7.1 19 2.7-6.9 5-12.9 7.4-19h5.4c2.3 5.9 4.6 11.8 7.3 18.6 2.5-6.5 4.7-12.4 7.1-18.5h8.6c-4.2 11.6-8.2 22.9-12.3 34.1-1.8 1.2-3.6.7-6 .5-2.2-5.8-4.5-11.7-7.4-18.8z"/><path class="st0" d="M268.5 165.8c-3.7-2.4-6.3-4.2-9-5.9s-5.3-3.4-8.1-5.2c.7-2.7 1.3-5.3 2.1-8.5 10.5 6.8 20.6 13.3 30.6 19.8.5 2.3-.3 4.1-1.1 6.1-6.3.9-12.5 1.8-19.9 2.8 6 4.1 11.3 7.8 16.6 11.6.3 1.9-.4 3.5-.9 5.6-12.1 1.4-24.2 2.9-36.5 4.3-.3-3.1.9-5.5 1.6-8.3 6.3-.8 12.7-1.6 20.1-2.6-5.9-4-11.1-7.6-16.4-11.2-.6-1.6.2-3.2.3-5.3 6.2-2 12.9-1.7 20.6-3.2zm38.7 114.9c-7.3.1-13.5-6-13.5-13.1-.1-7.4 5.8-13.3 13.2-13.4 7.6-.1 13.4 5.5 13.5 13-.1 7.5-5.8 13.4-13.2 13.5zm49.8-.1c-7.3-.3-13.1-6.5-12.9-13.8.3-7.4 6.4-13 13.8-12.7 7.7.3 13 5.9 12.7 13.7-.1 7.6-6.1 13.1-13.6 12.8zm-15.8-115.3c-1.8-1.5-4.1.3-5.3-2 1.5-2.6 4-.3 5.9-1.2 4.3-5.3 8.3-6.8 12.9-4.5 4.2 2 6.3 6.4 5.1 10.7-1.1 4.3-5.3 7.3-9.6 7.1-5.1-.3-7.9-3.4-9-10.1z"/><path d="M4.6 401.8l2.4-2.3c1.4 1.9 3.4 3.3 5.6 3.3 2.4 0 4-1.5 4-3.4 0-5.8-11.3-4.1-11.3-12 0-3.5 3-6.2 7-6.2 3.1 0 5.5 1.7 7 3.5l-2.1 2.2c-1.2-1.3-2.9-2.5-4.8-2.5-2.2 0-3.7 1.3-3.7 3.1 0 5.3 11.4 3.9 11.3 12 0 3.6-2.8 6.6-7.5 6.6-3.4-.1-6.3-2-7.9-4.3zm26.5-20.3h3.3v24.2h-3.3v-24.2zm28.8 3.2h-6v21h-3.3v-21h-6.1v-3.2h15.4v3.2zm13.5-.1v7.1h7.7v3.1h-7.7v7.6h10v3.2H70.1v-24.2h13.3v3.2h-10zm39.4 12.9v-16h3.3v15.6c0 3.8 2 5.7 5.1 5.7s5.1-2 5.1-5.7v-15.6h3.3v16c0 5.1-3.1 8.5-8.4 8.5s-8.4-3.4-8.4-8.5zm48.5-16V406h-.4l-16-17v16.6h-3.3v-24.5h.4l16 17.3v-17h3.3v.1zm31 12c0 6.7-4.5 12.1-12.1 12.1h-6.4v-24.2h6.4c7.6.1 12.1 5.4 12.1 12.1zm-3.3 0c0-4.9-3.3-8.8-8.8-8.8h-3.1v17.7h3.1c5.6 0 8.8-4.1 8.8-8.9zm18.4-8.9v7.1h7.7v3.1h-7.7v7.6h10v3.2h-13.3v-24.2h13.3v3.2h-10zm27.7 11.8h-3v9.3h-3.3v-24.2h6.6c4.9 0 7.8 3.6 7.8 7.5 0 3.1-1.8 5.9-4.9 7l5.9 9.7h-3.7l-5.4-9.3zm-3-3.2h3.1c2.8 0 4.7-1.8 4.7-4.2 0-2.5-1.9-4.3-4.7-4.3h-3.1v8.5zm21.8.3c0-6.7 4.8-12.5 12.4-12.5 2.2 0 4.1.5 5.7 1.3v3.7c-1.4-1.1-3.2-1.8-5.7-1.8-5.4 0-9 4.4-9 9.3s3.6 9.3 9 9.3c2.5 0 4.3-.7 5.7-1.8v3.7c-1.6.8-3.5 1.3-5.7 1.3-7.5 0-12.4-5.7-12.4-12.5zm27.6 0c0-6.7 4.9-12.5 12.4-12.5s12.4 5.8 12.4 12.5-4.9 12.5-12.4 12.5c-7.5.1-12.4-5.7-12.4-12.5zm21.5 0c0-4.9-3.7-9.3-9.1-9.3-5.5 0-9.1 4.3-9.1 9.3s3.6 9.3 9.1 9.3c5.4 0 9.1-4.3 9.1-9.3zm34.7-12V406h-.5l-16-17v16.6H318v-24.5h.5l16 17.3v-17l3.2.1zm11.2 20.3l2.4-2.2c1.4 1.9 3.4 3.3 5.6 3.3 2.4 0 4-1.5 4-3.4 0-5.8-11.3-4.1-11.3-12 0-3.5 3-6.2 7-6.2 3.1 0 5.5 1.7 7 3.5l-2.1 2.2c-1.2-1.3-2.9-2.5-4.8-2.5-2.2 0-3.7 1.3-3.7 3.1 0 5.3 11.4 3.9 11.3 12 0 3.6-2.8 6.6-7.5 6.6-3.4-.2-6.3-2.1-7.9-4.4zm39.2-17.1h-6v21h-3.3v-21h-6.1v-3.2h15.4v3.2zm16.5 11.7h-3v9.3h-3.3v-24.2h6.6c4.9 0 7.8 3.6 7.8 7.5 0 3.1-1.8 5.9-4.9 7l5.9 9.7H410l-5.4-9.3zm-3-3.2h3.1c2.8 0 4.7-1.8 4.7-4.2 0-2.5-1.9-4.3-4.7-4.3h-3.1v8.5zm22.1 4.3v-16h3.3v15.6c0 3.8 2 5.7 5.1 5.7s5.1-2 5.1-5.7v-15.6h3.3v16c0 5.1-3.1 8.5-8.4 8.5-5.3 0-8.4-3.4-8.4-8.5zm27.9-4c0-6.7 4.8-12.5 12.4-12.5 2.2 0 4.1.5 5.7 1.3v3.7c-1.4-1.1-3.2-1.8-5.7-1.8-5.4 0-9 4.4-9 9.3s3.6 9.3 9 9.3c2.5 0 4.3-.7 5.7-1.8v3.7c-1.6.8-3.5 1.3-5.7 1.3-7.5 0-12.4-5.7-12.4-12.5zm42.2-8.8h-6v21h-3.3v-21h-6.1v-3.2h15.4v3.2zm10.2-3.2h3.3v24.2H504v-24.2zm15.1 12c0-6.7 4.9-12.5 12.4-12.5s12.4 5.8 12.4 12.5S539 406 531.5 406c-7.5.1-12.4-5.7-12.4-12.5zm21.5 0c0-4.9-3.7-9.3-9.1-9.3-5.5 0-9.1 4.3-9.1 9.3s3.6 9.3 9.1 9.3c5.4 0 9.1-4.3 9.1-9.3zm34.8-12V406h-.5l-16-17v16.6h-3.2v-24.5h.5l16 17.3v-17l3.2.1z" fill="#fff" stroke="#fff" stroke-width="1.5" stroke-miterlimit="10"/><path fill="none" stroke="#fff" stroke-width=".75" stroke-miterlimit="10" d="M-4.5 326.5H580"/><path d="M282.3 280.7H378m-195.8 0h42.9" fill="none" stroke-width="5" stroke-linecap="round" stroke-linejoin="round" stroke="#fff" stroke-miterlimit="10"/><path class="st0" d="M18.5 32.1v14.2h-2.7V32.1h-4.4v-2.3h11.4v2.3h-4.3zm11 14.2V29.8h2.7v6.1h8.1v-6.1H43v16.4h-2.7v-8h-8.1v8h-2.7v.1zm21.8 0V29.8h9.2v2.3H54v4.1h6.5v2.3H54v5.3h6.5v2.4h-9.2v.1zm39.3 0L88.7 42h-6.5l-1.9 4.2h-2.8l8-17.1 8 17.1-2.9.1zm-7.4-6.5h4.6L86.1 36c-.1-.2-.2-.5-.3-.8-.1-.3-.2-.7-.3-1-.1.4-.2.7-.3 1l-.3.9-1.7 3.7zm16.3 6.5V29.8h2.7v14h6v2.4l-8.7.1zm28.8-8.2c0-.1-.1-.5-.1-1.1-.1-.5-.1-.9-.2-1.2-.1.4-.2.7-.3 1.1-.1.4-.3.8-.5 1.1l-4.3 8.8-4.3-8.9c-.2-.4-.3-.7-.5-1.1-.1-.3-.2-.7-.3-1 0 .3 0 .7-.1 1.1 0 .4-.1.8-.2 1.2l-1.8 8.1h-2.5l3.9-17.1 4.9 10.4c.1.2.2.4.3.8s.3.9.6 1.4c.2-.5.4-1.1.7-1.8.1-.2.2-.3.2-.4l4.7-10.4 4 17.1H130l-1.7-8.1zm27.9 0c0 1.2-.2 2.3-.7 3.3-.4 1-1.1 2-1.9 2.8-.8.8-1.8 1.4-2.9 1.9-1.1.4-2.2.7-3.3.7-1.2 0-2.3-.2-3.4-.7-1.1-.4-2-1.1-2.8-1.9-.8-.8-1.5-1.7-1.9-2.8-.4-1-.7-2.1-.7-3.3s.2-2.3.7-3.3c.4-1 1.1-2 1.9-2.8.8-.8 1.8-1.4 2.9-1.9 1.1-.4 2.2-.6 3.4-.6s2.3.2 3.4.6c1.1.4 2 1 2.8 1.9.8.8 1.5 1.8 1.9 2.8.4 1 .6 2.1.6 3.3zm-2.7 0c0-.8-.2-1.6-.5-2.4-.3-.7-.7-1.4-1.3-2s-1.2-1-1.9-1.3-1.5-.5-2.3-.5-1.6.2-2.3.5-1.4.8-1.9 1.3c-.6.6-1 1.2-1.3 2-.3.7-.4 1.5-.4 2.4 0 .8.1 1.6.4 2.4.3.7.7 1.4 1.3 2s1.2 1 1.9 1.3 1.5.5 2.3.5 1.6-.2 2.3-.5 1.4-.8 1.9-1.3c.6-.6 1-1.2 1.3-2s.5-1.6.5-2.4zm10.4 8.2V29.2l10.4 10.1.9.9c.3.3.6.7.9 1.1V29.8h2.5v17.1l-10.7-10.2c-.3-.3-.6-.6-.8-.9-.3-.3-.5-.6-.8-1v11.4h-2.4v.1zm23.1 0V29.8h3.6c2.3 0 4 .1 4.9.4 1 .2 1.8.6 2.5 1.2 1 .7 1.7 1.7 2.2 2.8s.7 2.4.7 3.9-.2 2.8-.7 3.9c-.5 1.1-1.2 2.1-2.2 2.8-.7.6-1.5.9-2.5 1.2-.9.2-2.3.4-4.3.4H187v-.1zm2.7-2.5h2.2c1.2 0 2.2-.1 2.8-.2.6-.2 1.2-.4 1.6-.8.6-.5 1.1-1.2 1.4-2 .3-.8.5-1.7.5-2.8s-.2-2-.5-2.8-.8-1.5-1.4-2c-.5-.4-1-.7-1.7-.8-.6-.2-1.7-.2-3-.2h-2l.1 11.6zm35.8-11.7v14.2h-2.7V32.1h-4.4v-2.3h11.4v2.3h-4.3zm13.5 6.8v7.4h-2.5V29.8h3.7c1.1 0 1.9.1 2.5.2s1.1.4 1.5.7c.5.4.9.9 1.2 1.5.3.6.4 1.3.4 2.1 0 1.3-.3 2.3-1 3.1-.6.7-1.6 1.2-2.8 1.3l5.7 7.5h-3l-5.5-7.4h-.2v.1zm.1-2.1h.5c1.4 0 2.4-.2 2.8-.5.5-.3.7-.9.7-1.8s-.2-1.5-.7-1.9-1.4-.6-2.8-.6h-.5v4.8zm14.8 9.5V29.8h9.2v2.3h-6.5v4.1h6.5v2.3h-6.5v5.3h6.5v2.4h-9.2v.1zm16.9 0V29.8h9.2v2.3h-6.5v4.1h6.5v2.3h-6.5v5.3h6.5v2.4h-9.2v.1zm26.4-16.5h2.6l3.1 8.3c.2.5.4 1 .5 1.4s.3.8.4 1.2c.3-.9.5-1.7.8-2.5 0-.1.1-.2.1-.2l3.3-8.8 3.5 9c.2.4.3.9.5 1.3.1.4.3.9.4 1.3.1-.3.2-.7.3-1.1.1-.4.3-.9.5-1.4l3.1-8.4h2.7L312.6 47l-3.8-9.4c-.2-.4-.3-.8-.4-1.2s-.3-.8-.4-1.1c-.1.4-.3.9-.4 1.2-.1.4-.3.8-.4 1.1l-3.7 9.3-6.3-17.1zm28.1 16.5V29.8h9.2v2.3H328v4.1h6.5v2.3H328v5.3h6.5v2.4h-9.2v.1zm16.9 0V29.8h2.7v14h6v2.4l-8.7.1zm15.4 0V29.8h2.7v14h6v2.4l-8.7.1zm15.4 0V29.2l10.4 10.1.9.9c.3.3.6.7.9 1.1V29.8h2.5v17.1L377 36.7c-.3-.3-.6-.6-.8-.9s-.5-.6-.8-1v11.4H373v.1zm23.1 0V29.8h9.2v2.3h-6.5v4.1h6.5v2.3h-6.5v5.3h6.5v2.4h-9.2v.1zM412 43l2.1-1c.2.7.6 1.3 1.1 1.7s1.2.6 2.1.6c.8 0 1.4-.2 1.9-.7s.7-1 .7-1.8c0-1-.8-1.8-2.4-2.6-.2-.1-.4-.2-.5-.2-1.8-.9-3-1.7-3.6-2.4s-.9-1.6-.9-2.6c0-1.3.5-2.4 1.4-3.3.9-.8 2.1-1.2 3.6-1.2 1.2 0 2.2.2 3 .7s1.4 1.1 1.7 2l-2.1 1.1c-.3-.5-.7-.9-1.1-1.1-.4-.2-.8-.4-1.4-.4-.7 0-1.3.2-1.7.6s-.6.9-.6 1.5c0 1 .9 1.9 2.8 2.8.1.1.3.1.3.2 1.6.7 2.7 1.5 3.3 2.2.6.7.9 1.6.9 2.7 0 1.6-.5 2.8-1.5 3.7s-2.3 1.4-4 1.4c-1.4 0-2.5-.3-3.4-1s-1.4-1.7-1.7-2.9zm17.2 0l2.1-1c.2.7.6 1.3 1.1 1.7s1.2.6 2.1.6c.8 0 1.4-.2 1.9-.7s.7-1 .7-1.8c0-1-.8-1.8-2.4-2.6-.2-.1-.4-.2-.5-.2-1.8-.9-3-1.7-3.6-2.4s-.9-1.6-.9-2.6c0-1.3.5-2.4 1.4-3.3.9-.8 2.1-1.2 3.6-1.2 1.2 0 2.2.2 3 .7s1.4 1.1 1.7 2l-2.1 1.1c-.3-.5-.7-.9-1.1-1.1-.4-.2-.8-.4-1.4-.4-.7 0-1.3.2-1.7.6s-.6.9-.6 1.5c0 1 .9 1.9 2.8 2.8.1.1.3.1.3.2 1.6.7 2.7 1.5 3.3 2.2.6.7.9 1.6.9 2.7 0 1.6-.5 2.8-1.5 3.7s-2.3 1.4-4 1.4c-1.4 0-2.5-.3-3.4-1s-1.4-1.7-1.7-2.9zm42.9-9.2c-.8-.6-1.6-1.1-2.4-1.4-.8-.3-1.7-.5-2.7-.5-1.8 0-3.3.6-4.4 1.7s-1.7 2.6-1.7 4.5c0 1.8.5 3.2 1.6 4.4s2.5 1.7 4.1 1.7c1 0 1.9-.2 2.8-.5s1.7-.9 2.5-1.6v3c-.7.5-1.5.9-2.3 1.2s-1.8.4-2.8.4c-1.3 0-2.4-.2-3.5-.6-1.1-.4-2-1-2.8-1.8s-1.4-1.7-1.8-2.8-.6-2.2-.6-3.4.2-2.3.6-3.4c.4-1.1 1.1-2 1.9-2.8s1.8-1.4 2.8-1.8c1.1-.4 2.2-.6 3.4-.6 1 0 1.9.1 2.8.4s1.7.7 2.5 1.3v2.6zm7.9 12.5V29.8h9.2v2.3h-6.5v4.1h6.5v2.3h-6.5v5.3h6.5v2.4H480v.1zm16.9 0V29.2l10.4 10.1.9.9c.3.3.6.7.9 1.1V29.8h2.5v17.1l-10.7-10.2c-.3-.3-.6-.6-.8-.9s-.5-.6-.8-1v11.4h-2.4v.1zm28.4-14.2v14.2h-2.7V32.1h-4.4v-2.3h11.4v2.3h-4.3zm13.5 6.8v7.4h-2.5V29.8h3.7c1.1 0 1.9.1 2.5.2s1.1.4 1.5.7c.5.4.9.9 1.2 1.5.3.6.4 1.3.4 2.1 0 1.3-.3 2.3-1 3.1-.6.7-1.6 1.2-2.8 1.3l5.7 7.5h-3l-5.5-7.4h-.2v.1zm.1-2.1h.5c1.4 0 2.4-.2 2.8-.5s.7-.9.7-1.8-.2-1.5-.7-1.9-1.4-.6-2.8-.6h-.5v4.8zm14.8 9.5V29.8h9.2v2.3h-6.5v4.1h6.5v2.3h-6.5v5.3h6.5v2.4h-9.2v.1z"/></svg>