<?xml version="1.0" encoding="utf-8"?>
<!-- Generator: Adobe Illustrator 23.0.1, SVG Export Plug-In . SVG Version: 6.00 Build 0)  -->
<svg version="1.1" id="Layer_1" xmlns="http://www.w3.org/2000/svg" xmlns:xlink="http://www.w3.org/1999/xlink" x="0px" y="0px"
	 viewBox="0 0 64 64" style="enable-background:new 0 0 64 64;" xml:space="preserve">
<path d="M35.5,32L58.9,8.6c1-1,1-2.5,0-3.5c-1-1-2.5-1-3.5,0L32,28.5L8.6,5.1c-1-1-2.5-1-3.5,0c-1,1-1,2.5,0,3.5L28.5,32L5.1,55.4
	c-1,1-1,2.5,0,3.5c0.5,0.5,1.1,0.7,1.8,0.7s1.3-0.2,1.8-0.7L32,35.5l23.4,23.4c0.5,0.5,1.1,0.7,1.8,0.7s1.3-0.2,1.8-0.7
	c1-1,1-2.5,0-3.5L35.5,32z"/>
</svg>
