<?xml version="1.0" encoding="utf-8"?>
<!-- Generator: Adobe Illustrator 23.0.1, SVG Export Plug-In . SVG Version: 6.00 Build 0)  -->
<svg version="1.1" id="Layer_1" xmlns="http://www.w3.org/2000/svg" xmlns:xlink="http://www.w3.org/1999/xlink" x="0px" y="0px"
	 viewBox="0 0 80 80" style="enable-background:new 0 0 80 80;" xml:space="preserve">
<style type="text/css">
	.st0{opacity:0.5;}
	.st1{fill:#020202;}
</style>
<g class="st0">
	<path class="st1" d="M15.5,32.2h10.6v34.2H15.5V32.2z M20.8,15.2c3.4,0,6.2,2.8,6.2,6.2s-2.8,6.2-6.2,6.2s-6.2-2.8-6.2-6.2
		C14.6,18,17.4,15.2,20.8,15.2"/>
	<path class="st1" d="M32.8,32.2H43v4.7h0.1c1.4-2.7,4.9-5.5,10.1-5.5c10.7,0,12.7,7.1,12.7,16.3v18.7H55.3V49.7
		c0-4-0.1-9.1-5.5-9.1c-5.5,0-6.4,4.3-6.4,8.8v16.9H32.8V32.2z"/>
</g>
</svg>
