<?xml version="1.0" encoding="utf-8"?>
<!-- Generator: Adobe Illustrator 23.0.1, SVG Export Plug-In . SVG Version: 6.00 Build 0)  -->
<svg version="1.1" id="Layer_1" xmlns="http://www.w3.org/2000/svg" xmlns:xlink="http://www.w3.org/1999/xlink" x="0px" y="0px"
	 viewBox="0 0 50 50" style="enable-background:new 0 0 50 50;" xml:space="preserve">
<style type="text/css">
	.st0{fill:#FFFFFF;}
</style>
<g id="surface1">
	<path class="st0" d="M25,5C14.4,5,5.6,13.4,5.1,23.9c0,0.7,0.3,1.4,0.9,1.8c0.6,0.4,1.4,0.4,2,0.1s1.1-1,1.1-1.7
		C9.5,15.7,16.4,9,25,9c4.6,0,8.7,1.9,11.6,5H34c-0.7,0-1.4,0.4-1.8,1c-0.4,0.6-0.4,1.4,0,2c0.4,0.6,1,1,1.8,1h6.3
		c0.2,0,0.5,0,0.7,0H44V8c0-0.5-0.2-1.1-0.6-1.4C43,6.2,42.5,6,42,6c-1.1,0-2,0.9-2,2v3.8C36.3,7.6,31,5,25,5z M43,24
		c-1.1,0-2,0.8-2.1,1.9C40.5,34.3,33.6,41,25,41c-4.6,0-8.7-1.9-11.6-5H16c0.7,0,1.4-0.4,1.8-1c0.4-0.6,0.4-1.4,0-2
		c-0.4-0.6-1-1-1.8-1H9.7c-0.2,0-0.4,0-0.6,0H6v10c0,0.7,0.4,1.4,1,1.8c0.6,0.4,1.4,0.4,2,0c0.6-0.4,1-1,1-1.8v-3.8
		c3.7,4.2,9,6.8,15,6.8c10.6,0,19.4-8.4,19.9-18.9c0-0.5-0.1-1.1-0.5-1.5C44.1,24.2,43.6,24,43,24z"/>
</g>
</svg>
