<?xml version="1.0" encoding="utf-8"?>
<!-- Generator: Adobe Illustrator 23.0.1, SVG Export Plug-In . SVG Version: 6.00 Build 0)  -->
<svg version="1.1" id="Layer_1" xmlns="http://www.w3.org/2000/svg" xmlns:xlink="http://www.w3.org/1999/xlink" x="0px" y="0px"
	 viewBox="0 0 580 410.5" style="enable-background:new 0 0 580 410.5;" xml:space="preserve">
<style type="text/css">
	.st0{fill:#FFFFFF;}
	.st1{fill:#FFFFFF;stroke:#FFFFFF;stroke-width:1.5;stroke-miterlimit:10;}
	.st2{fill:none;stroke:#FFFFFF;stroke-width:0.75;stroke-miterlimit:10;}
	.st3{fill:none;stroke:#FFFFFF;stroke-width:5;stroke-linecap:round;stroke-linejoin:round;stroke-miterlimit:10;}
</style>
<g>
	
		<image style="display:none;overflow:visible;opacity:0.2;enable-background:new    ;" width="266" height="216" xlink:href="../../../Linchpin/v0,2/img/76616DD4.png"  transform="matrix(0.9959 0 0 0.9959 138.796 89.4434)">
	</image>
	<g>
		<g>
			<path class="st0" d="M281.7,251.2c-0.4,2.9-0.9,5.9-1.3,9.1c-14.3-2.8-28.3-5.6-42.2-8.3c-1.1-1.8,0.7-3.3-0.1-5.1
				c-2.4-1-5,1.4-7.6,0c-0.2-2.7,0.8-5.1,1.6-7.8c6.4-0.8,12.7-1.7,20.1-2.6c-6.1-4.1-11.2-7.7-16.4-11.2c-0.6-2,0.3-3.6,0.9-5.7
				c6.1-0.8,12.4-1.6,19.5-2.5c-5.4-4.8-11.4-7.4-16.7-11.4c0.6-2.6,1.3-5.1,2.1-8.3c10.5,6.8,20.7,13.3,30.7,19.8
				c0.6,2.3,0,4.1-1,6c-6.2,0.9-12.4,1.8-19.5,2.8c5.2,4.7,10.8,7.7,15.9,11.3c0.6,2-0.3,3.7-0.8,6c-6.2,0.8-12.6,1.5-19,2.3
				c0,0.3,0,0.6-0.1,0.9c8.6,1.7,17.2,3.4,26.2,5.2c5.1-34.5,10.2-68.7,15.3-103.5c-3.4,1-6.6,1.5-8.3-2.1c-1.1-2.2-0.6-4.3,1.1-5.9
				c2.5-2.3,5.2-1.7,7.9,0.9c0.8-2.7,0.4-5.3,1.9-7.6c2.1,0.2,4.3,0.4,7,0.7c-2.9,19.1-5.6,37.7-8.5,56.3c3.1,1.4,6.1,0.6,9,0.6
				c6.5,0.1,13,0.1,19.5,0c11.6-0.1,13.1,1,17.1,12.4c0.7-3.5,0.9-6,1.7-8.4c0.9-2.8,2.2-5.6,3.6-8.2c2.1-3.8,5.2-6.9,9.8-6.8
				c4.9,0.2,8.1,3.4,10.3,7.7c2.3,4.5,3.6,9.3,4.2,14.2c7.9,2.8,9.9,5.6,9.9,13.9c0,12.3,0,24.7,0,37c0,2.8,0,5.6-2.6,8
				c-3.4-8.4-9-12.9-18.2-11.5c-7.2,1.1-11,5.6-13,15.3c-6,0-12.1,0-18.6,0c-1.2-5-2.7-10.3-7.9-13.3c-3-1.7-6.1-2.6-9.5-2.3
				c-7.9,0.8-12.5,5.6-14.6,15.2c-6.4-1.9-8.1-4.4-8.6-12.6c0.8-1.3,0.4-2.6-0.3-5C282,248.8,281.9,250,281.7,251.2z"/>
			<path class="st0" d="M203.4,262.8c-2.8,6.9-5.1,12.7-7.4,18.4c-1.8,1-3.6,0.5-5.8,0.5c-4.1-11.5-8.3-22.9-12.6-34.8
				c3.2,0,5.9,0,8.6,0c2.2,6,4.5,12,7.1,19c2.7-6.9,5-12.9,7.4-19c1.9,0,3.5,0,5.4,0c2.3,5.9,4.6,11.8,7.3,18.6
				c2.5-6.5,4.7-12.4,7.1-18.5c2.7,0,5.3,0,8.6,0c-4.2,11.6-8.2,22.9-12.3,34.1c-1.8,1.2-3.6,0.7-6,0.5
				C208.6,275.8,206.3,269.9,203.4,262.8z"/>
			<path class="st0" d="M268.5,165.8c-3.7-2.4-6.3-4.2-9-5.9s-5.3-3.4-8.1-5.2c0.7-2.7,1.3-5.3,2.1-8.5
				c10.5,6.8,20.6,13.3,30.6,19.8c0.5,2.3-0.3,4.1-1.1,6.1c-6.3,0.9-12.5,1.8-19.9,2.8c6,4.1,11.3,7.8,16.6,11.6
				c0.3,1.9-0.4,3.5-0.9,5.6c-12.1,1.4-24.2,2.9-36.5,4.3c-0.3-3.1,0.9-5.5,1.6-8.3c6.3-0.8,12.7-1.6,20.1-2.6
				c-5.9-4-11.1-7.6-16.4-11.2c-0.6-1.6,0.2-3.2,0.3-5.3C254.1,167,260.8,167.3,268.5,165.8z"/>
			<path class="st0" d="M307.2,280.7c-7.3,0.1-13.5-6-13.5-13.1c-0.1-7.4,5.8-13.3,13.2-13.4c7.6-0.1,13.4,5.5,13.5,13
				C320.3,274.7,314.6,280.6,307.2,280.7z"/>
			<path class="st0" d="M357,280.6c-7.3-0.3-13.1-6.5-12.9-13.8c0.3-7.4,6.4-13,13.8-12.7c7.7,0.3,13,5.9,12.7,13.7
				C370.5,275.4,364.5,280.9,357,280.6z"/>
			<path class="st0" d="M341.2,165.3c-1.8-1.5-4.1,0.3-5.3-2c1.5-2.6,4-0.3,5.9-1.2c4.3-5.3,8.3-6.8,12.9-4.5
				c4.2,2,6.3,6.4,5.1,10.7c-1.1,4.3-5.3,7.3-9.6,7.1C345.1,175.1,342.3,172,341.2,165.3z"/>
		</g>
	</g>
</g>
<g>
	
		<image style="display:none;overflow:visible;opacity:0.2;enable-background:new    ;" width="623" height="75" xlink:href="../../../Linchpin/v0,2/img/76616DEB.png"  transform="matrix(0.9984 0 0 0.9984 -26.2571 346.0593)">
	</image>
	<g>
		<g>
			<path class="st1" d="M4.6,401.8l2.4-2.3c1.4,1.9,3.4,3.3,5.6,3.3c2.4,0,4-1.5,4-3.4c0-5.8-11.3-4.1-11.3-12c0-3.5,3-6.2,7-6.2
				c3.1,0,5.5,1.7,7,3.5l-2.1,2.2c-1.2-1.3-2.9-2.5-4.8-2.5c-2.2,0-3.7,1.3-3.7,3.1c0,5.3,11.4,3.9,11.3,12c0,3.6-2.8,6.6-7.5,6.6
				C9.1,406,6.2,404.1,4.6,401.8z"/>
			<path class="st1" d="M31.1,381.5h3.3v24.2h-3.3C31.1,405.7,31.1,381.5,31.1,381.5z"/>
			<path class="st1" d="M59.9,384.7h-6v21h-3.3v-21h-6.1v-3.2h15.4V384.7z"/>
			<path class="st1" d="M73.4,384.6v7.1h7.7v3.1h-7.7v7.6h10v3.2H70.1v-24.2h13.3v3.2L73.4,384.6L73.4,384.6z"/>
			<path class="st1" d="M112.8,397.5v-16h3.3v15.6c0,3.8,2,5.7,5.1,5.7s5.1-2,5.1-5.7v-15.6h3.3v16c0,5.1-3.1,8.5-8.4,8.5
				S112.8,402.6,112.8,397.5z"/>
			<path class="st1" d="M161.3,381.5V406h-0.4l-16-17v16.6h-3.3v-24.5h0.4l16,17.3v-17h3.3V381.5z"/>
			<path class="st1" d="M192.3,393.5c0,6.7-4.5,12.1-12.1,12.1h-6.4v-24.2h6.4C187.8,381.5,192.3,386.8,192.3,393.5z M189,393.5
				c0-4.9-3.3-8.8-8.8-8.8h-3.1v17.7h3.1C185.8,402.4,189,398.3,189,393.5z"/>
			<path class="st1" d="M207.4,384.6v7.1h7.7v3.1h-7.7v7.6h10v3.2h-13.3v-24.2h13.3v3.2L207.4,384.6L207.4,384.6z"/>
			<path class="st1" d="M235.1,396.4h-3v9.3h-3.3v-24.2h6.6c4.9,0,7.8,3.6,7.8,7.5c0,3.1-1.8,5.9-4.9,7l5.9,9.7h-3.7L235.1,396.4z
				 M232.1,393.2h3.1c2.8,0,4.7-1.8,4.7-4.2c0-2.5-1.9-4.3-4.7-4.3h-3.1V393.2z"/>
			<path class="st1" d="M253.9,393.5c0-6.7,4.8-12.5,12.4-12.5c2.2,0,4.1,0.5,5.7,1.3v3.7c-1.4-1.1-3.2-1.8-5.7-1.8
				c-5.4,0-9,4.4-9,9.3s3.6,9.3,9,9.3c2.5,0,4.3-0.7,5.7-1.8v3.7c-1.6,0.8-3.5,1.3-5.7,1.3C258.8,406,253.9,400.3,253.9,393.5z"/>
			<path class="st1" d="M281.5,393.5c0-6.7,4.9-12.5,12.4-12.5s12.4,5.8,12.4,12.5s-4.9,12.5-12.4,12.5
				C286.4,406.1,281.5,400.3,281.5,393.5z M303,393.5c0-4.9-3.7-9.3-9.1-9.3c-5.5,0-9.1,4.3-9.1,9.3s3.6,9.3,9.1,9.3
				C299.3,402.8,303,398.5,303,393.5z"/>
			<path class="st1" d="M337.7,381.5V406h-0.5l-16-17v16.6H318v-24.5h0.5l16,17.3v-17L337.7,381.5L337.7,381.5z"/>
			<path class="st1" d="M348.9,401.8l2.4-2.2c1.4,1.9,3.4,3.3,5.6,3.3c2.4,0,4-1.5,4-3.4c0-5.8-11.3-4.1-11.3-12c0-3.5,3-6.2,7-6.2
				c3.1,0,5.5,1.7,7,3.5l-2.1,2.2c-1.2-1.3-2.9-2.5-4.8-2.5c-2.2,0-3.7,1.3-3.7,3.1c0,5.3,11.4,3.9,11.3,12c0,3.6-2.8,6.6-7.5,6.6
				C353.4,406,350.5,404.1,348.9,401.8z"/>
			<path class="st1" d="M388.1,384.7h-6v21h-3.3v-21h-6.1v-3.2h15.4V384.7z"/>
			<path class="st1" d="M404.6,396.4h-3v9.3h-3.3v-24.2h6.6c4.9,0,7.8,3.6,7.8,7.5c0,3.1-1.8,5.9-4.9,7l5.9,9.7H410L404.6,396.4z
				 M401.6,393.2h3.1c2.8,0,4.7-1.8,4.7-4.2c0-2.5-1.9-4.3-4.7-4.3h-3.1V393.2z"/>
			<path class="st1" d="M423.7,397.5v-16h3.3v15.6c0,3.8,2,5.7,5.1,5.7s5.1-2,5.1-5.7v-15.6h3.3v16c0,5.1-3.1,8.5-8.4,8.5
				C426.8,406,423.7,402.6,423.7,397.5z"/>
			<path class="st1" d="M451.6,393.5c0-6.7,4.8-12.5,12.4-12.5c2.2,0,4.1,0.5,5.7,1.3v3.7c-1.4-1.1-3.2-1.8-5.7-1.8
				c-5.4,0-9,4.4-9,9.3s3.6,9.3,9,9.3c2.5,0,4.3-0.7,5.7-1.8v3.7c-1.6,0.8-3.5,1.3-5.7,1.3C456.5,406,451.6,400.3,451.6,393.5z"/>
			<path class="st1" d="M493.8,384.7h-6v21h-3.3v-21h-6.1v-3.2h15.4V384.7z"/>
			<path class="st1" d="M504,381.5h3.3v24.2H504V381.5z"/>
			<path class="st1" d="M519.1,393.5c0-6.7,4.9-12.5,12.4-12.5s12.4,5.8,12.4,12.5S539,406,531.5,406
				C524,406.1,519.1,400.3,519.1,393.5z M540.6,393.5c0-4.9-3.7-9.3-9.1-9.3c-5.5,0-9.1,4.3-9.1,9.3s3.6,9.3,9.1,9.3
				C536.9,402.8,540.6,398.5,540.6,393.5z"/>
			<path class="st1" d="M575.4,381.5V406h-0.5l-16-17v16.6h-3.2v-24.5h0.5l16,17.3v-17L575.4,381.5L575.4,381.5z"/>
		</g>
	</g>
</g>
<line class="st2" x1="-4.5" y1="326.5" x2="580" y2="326.5"/>
<line class="st3" x1="282.3" y1="280.7" x2="378" y2="280.7"/>
<line class="st3" x1="182.2" y1="280.7" x2="225.1" y2="280.7"/>
<g>
	<path class="st0" d="M18.5,32.1v14.2h-2.7V32.1h-4.4v-2.3h11.4v2.3H18.5z"/>
	<path class="st0" d="M29.5,46.3V29.8h2.7v6.1h8.1v-6.1H43v16.4h-2.7v-8h-8.1v8h-2.7V46.3z"/>
	<path class="st0" d="M51.3,46.3V29.8h9.2v2.3H54v4.1h6.5v2.3H54v5.3h6.5v2.4h-9.2V46.3z"/>
	<path class="st0" d="M90.6,46.3L88.7,42h-6.5l-1.9,4.2h-2.8l8-17.1l8,17.1L90.6,46.3L90.6,46.3z M83.2,39.8h4.6L86.1,36
		c-0.1-0.2-0.2-0.5-0.3-0.8c-0.1-0.3-0.2-0.7-0.3-1c-0.1,0.4-0.2,0.7-0.3,1c-0.1,0.3-0.2,0.6-0.3,0.9L83.2,39.8z"/>
	<path class="st0" d="M99.5,46.3V29.8h2.7v14h6v2.4L99.5,46.3L99.5,46.3z"/>
	<path class="st0" d="M128.3,38.1c0-0.1-0.1-0.5-0.1-1.1c-0.1-0.5-0.1-0.9-0.2-1.2c-0.1,0.4-0.2,0.7-0.3,1.1
		c-0.1,0.4-0.3,0.8-0.5,1.1l-4.3,8.8l-4.3-8.9c-0.2-0.4-0.3-0.7-0.5-1.1c-0.1-0.3-0.2-0.7-0.3-1c0,0.3,0,0.7-0.1,1.1
		c0,0.4-0.1,0.8-0.2,1.2l-1.8,8.1h-2.5l3.9-17.1l4.9,10.4c0.1,0.2,0.2,0.4,0.3,0.8s0.3,0.9,0.6,1.4c0.2-0.5,0.4-1.1,0.7-1.8
		c0.1-0.2,0.2-0.3,0.2-0.4l4.7-10.4l4,17.1H130L128.3,38.1z"/>
	<path class="st0" d="M156.2,38.1c0,1.2-0.2,2.3-0.7,3.3c-0.4,1-1.1,2-1.9,2.8c-0.8,0.8-1.8,1.4-2.9,1.9c-1.1,0.4-2.2,0.7-3.3,0.7
		c-1.2,0-2.3-0.2-3.4-0.7c-1.1-0.4-2-1.1-2.8-1.9c-0.8-0.8-1.5-1.7-1.9-2.8c-0.4-1-0.7-2.1-0.7-3.3s0.2-2.3,0.7-3.3
		c0.4-1,1.1-2,1.9-2.8c0.8-0.8,1.8-1.4,2.9-1.9c1.1-0.4,2.2-0.6,3.4-0.6s2.3,0.2,3.4,0.6c1.1,0.4,2,1,2.8,1.9
		c0.8,0.8,1.5,1.8,1.9,2.8C156,35.8,156.2,36.9,156.2,38.1z M153.5,38.1c0-0.8-0.2-1.6-0.5-2.4c-0.3-0.7-0.7-1.4-1.3-2
		s-1.2-1-1.9-1.3s-1.5-0.5-2.3-0.5s-1.6,0.2-2.3,0.5s-1.4,0.8-1.9,1.3c-0.6,0.6-1,1.2-1.3,2c-0.3,0.7-0.4,1.5-0.4,2.4
		c0,0.8,0.1,1.6,0.4,2.4c0.3,0.7,0.7,1.4,1.3,2s1.2,1,1.9,1.3s1.5,0.5,2.3,0.5s1.6-0.2,2.3-0.5s1.4-0.8,1.9-1.3c0.6-0.6,1-1.2,1.3-2
		S153.5,38.9,153.5,38.1z"/>
	<path class="st0" d="M163.9,46.3V29.2l10.4,10.1c0.3,0.3,0.6,0.6,0.9,0.9s0.6,0.7,0.9,1.1V29.8h2.5v17.1l-10.7-10.2
		c-0.3-0.3-0.6-0.6-0.8-0.9c-0.3-0.3-0.5-0.6-0.8-1v11.4h-2.4V46.3z"/>
	<path class="st0" d="M187,46.3V29.8h3.6c2.3,0,4,0.1,4.9,0.4c1,0.2,1.8,0.6,2.5,1.2c1,0.7,1.7,1.7,2.2,2.8s0.7,2.4,0.7,3.9
		s-0.2,2.8-0.7,3.9c-0.5,1.1-1.2,2.1-2.2,2.8c-0.7,0.6-1.5,0.9-2.5,1.2c-0.9,0.2-2.3,0.4-4.3,0.4h-0.7H187V46.3z M189.7,43.8h2.2
		c1.2,0,2.2-0.1,2.8-0.2c0.6-0.2,1.2-0.4,1.6-0.8c0.6-0.5,1.1-1.2,1.4-2c0.3-0.8,0.5-1.7,0.5-2.8s-0.2-2-0.5-2.8s-0.8-1.5-1.4-2
		c-0.5-0.4-1-0.7-1.7-0.8c-0.6-0.2-1.7-0.2-3-0.2h-1h-1L189.7,43.8L189.7,43.8z"/>
	<path class="st0" d="M225.5,32.1v14.2h-2.7V32.1h-4.4v-2.3h11.4v2.3H225.5z"/>
	<path class="st0" d="M239,38.9v7.4h-2.5V29.8h3.7c1.1,0,1.9,0.1,2.5,0.2s1.1,0.4,1.5,0.7c0.5,0.4,0.9,0.9,1.2,1.5
		c0.3,0.6,0.4,1.3,0.4,2.1c0,1.3-0.3,2.3-1,3.1c-0.6,0.7-1.6,1.2-2.8,1.3l5.7,7.5h-3l-5.5-7.4H239V38.9z M239.1,36.8h0.5
		c1.4,0,2.4-0.2,2.8-0.5c0.5-0.3,0.7-0.9,0.7-1.8c0-0.9-0.2-1.5-0.7-1.9S241,32,239.6,32h-0.5V36.8z"/>
	<path class="st0" d="M253.9,46.3V29.8h9.2v2.3h-6.5v4.1h6.5v2.3h-6.5v5.3h6.5v2.4h-9.2V46.3z"/>
	<path class="st0" d="M270.8,46.3V29.8h9.2v2.3h-6.5v4.1h6.5v2.3h-6.5v5.3h6.5v2.4h-9.2V46.3z"/>
	<path class="st0" d="M297.2,29.8h2.6l3.1,8.3c0.2,0.5,0.4,1,0.5,1.4s0.3,0.8,0.4,1.2c0.3-0.9,0.5-1.7,0.8-2.5
		c0-0.1,0.1-0.2,0.1-0.2l3.3-8.8l3.5,9c0.2,0.4,0.3,0.9,0.5,1.3c0.1,0.4,0.3,0.9,0.4,1.3c0.1-0.3,0.2-0.7,0.3-1.1
		c0.1-0.4,0.3-0.9,0.5-1.4l3.1-8.4h2.7L312.6,47l-3.8-9.4c-0.2-0.4-0.3-0.8-0.4-1.2s-0.3-0.8-0.4-1.1c-0.1,0.4-0.3,0.9-0.4,1.2
		c-0.1,0.4-0.3,0.8-0.4,1.1l-3.7,9.3L297.2,29.8z"/>
	<path class="st0" d="M325.3,46.3V29.8h9.2v2.3H328v4.1h6.5v2.3H328v5.3h6.5v2.4h-9.2V46.3z"/>
	<path class="st0" d="M342.2,46.3V29.8h2.7v14h6v2.4L342.2,46.3L342.2,46.3z"/>
	<path class="st0" d="M357.6,46.3V29.8h2.7v14h6v2.4L357.6,46.3L357.6,46.3z"/>
	<path class="st0" d="M373,46.3V29.2l10.4,10.1c0.3,0.3,0.6,0.6,0.9,0.9c0.3,0.3,0.6,0.7,0.9,1.1V29.8h2.5v17.1L377,36.7
		c-0.3-0.3-0.6-0.6-0.8-0.9s-0.5-0.6-0.8-1v11.4H373V46.3z"/>
	<path class="st0" d="M396.1,46.3V29.8h9.2v2.3h-6.5v4.1h6.5v2.3h-6.5v5.3h6.5v2.4h-9.2V46.3z"/>
	<path class="st0" d="M412,43l2.1-1c0.2,0.7,0.6,1.3,1.1,1.7s1.2,0.6,2.1,0.6c0.8,0,1.4-0.2,1.9-0.7s0.7-1,0.7-1.8
		c0-1-0.8-1.8-2.4-2.6c-0.2-0.1-0.4-0.2-0.5-0.2c-1.8-0.9-3-1.7-3.6-2.4s-0.9-1.6-0.9-2.6c0-1.3,0.5-2.4,1.4-3.3
		c0.9-0.8,2.1-1.2,3.6-1.2c1.2,0,2.2,0.2,3,0.7s1.4,1.1,1.7,2l-2.1,1.1c-0.3-0.5-0.7-0.9-1.1-1.1c-0.4-0.2-0.8-0.4-1.4-0.4
		c-0.7,0-1.3,0.2-1.7,0.6s-0.6,0.9-0.6,1.5c0,1,0.9,1.9,2.8,2.8c0.1,0.1,0.3,0.1,0.3,0.2c1.6,0.7,2.7,1.5,3.3,2.2
		c0.6,0.7,0.9,1.6,0.9,2.7c0,1.6-0.5,2.8-1.5,3.7s-2.3,1.4-4,1.4c-1.4,0-2.5-0.3-3.4-1S412.3,44.2,412,43z"/>
	<path class="st0" d="M429.2,43l2.1-1c0.2,0.7,0.6,1.3,1.1,1.7s1.2,0.6,2.1,0.6c0.8,0,1.4-0.2,1.9-0.7s0.7-1,0.7-1.8
		c0-1-0.8-1.8-2.4-2.6c-0.2-0.1-0.4-0.2-0.5-0.2c-1.8-0.9-3-1.7-3.6-2.4s-0.9-1.6-0.9-2.6c0-1.3,0.5-2.4,1.4-3.3
		c0.9-0.8,2.1-1.2,3.6-1.2c1.2,0,2.2,0.2,3,0.7s1.4,1.1,1.7,2l-2.1,1.1c-0.3-0.5-0.7-0.9-1.1-1.1c-0.4-0.2-0.8-0.4-1.4-0.4
		c-0.7,0-1.3,0.2-1.7,0.6s-0.6,0.9-0.6,1.5c0,1,0.9,1.9,2.8,2.8c0.1,0.1,0.3,0.1,0.3,0.2c1.6,0.7,2.7,1.5,3.3,2.2
		c0.6,0.7,0.9,1.6,0.9,2.7c0,1.6-0.5,2.8-1.5,3.7s-2.3,1.4-4,1.4c-1.4,0-2.5-0.3-3.4-1S429.5,44.2,429.2,43z"/>
	<path class="st0" d="M472.1,33.8c-0.8-0.6-1.6-1.1-2.4-1.4c-0.8-0.3-1.7-0.5-2.7-0.5c-1.8,0-3.3,0.6-4.4,1.7s-1.7,2.6-1.7,4.5
		c0,1.8,0.5,3.2,1.6,4.4s2.5,1.7,4.1,1.7c1,0,1.9-0.2,2.8-0.5s1.7-0.9,2.5-1.6v3c-0.7,0.5-1.5,0.9-2.3,1.2s-1.8,0.4-2.8,0.4
		c-1.3,0-2.4-0.2-3.5-0.6c-1.1-0.4-2-1-2.8-1.8s-1.4-1.7-1.8-2.8s-0.6-2.2-0.6-3.4s0.2-2.3,0.6-3.4c0.4-1.1,1.1-2,1.9-2.8
		s1.8-1.4,2.8-1.8c1.1-0.4,2.2-0.6,3.4-0.6c1,0,1.9,0.1,2.8,0.4s1.7,0.7,2.5,1.3V33.8z"/>
	<path class="st0" d="M480,46.3V29.8h9.2v2.3h-6.5v4.1h6.5v2.3h-6.5v5.3h6.5v2.4H480V46.3z"/>
	<path class="st0" d="M496.9,46.3V29.2l10.4,10.1c0.3,0.3,0.6,0.6,0.9,0.9c0.3,0.3,0.6,0.7,0.9,1.1V29.8h2.5v17.1l-10.7-10.2
		c-0.3-0.3-0.6-0.6-0.8-0.9s-0.5-0.6-0.8-1v11.4h-2.4V46.3z"/>
	<path class="st0" d="M525.3,32.1v14.2h-2.7V32.1h-4.4v-2.3h11.4v2.3H525.3z"/>
	<path class="st0" d="M538.8,38.9v7.4h-2.5V29.8h3.7c1.1,0,1.9,0.1,2.5,0.2s1.1,0.4,1.5,0.7c0.5,0.4,0.9,0.9,1.2,1.5
		c0.3,0.6,0.4,1.3,0.4,2.1c0,1.3-0.3,2.3-1,3.1c-0.6,0.7-1.6,1.2-2.8,1.3l5.7,7.5h-3l-5.5-7.4h-0.2V38.9z M538.9,36.8h0.5
		c1.4,0,2.4-0.2,2.8-0.5s0.7-0.9,0.7-1.8c0-0.9-0.2-1.5-0.7-1.9s-1.4-0.6-2.8-0.6h-0.5V36.8z"/>
	<path class="st0" d="M553.7,46.3V29.8h9.2v2.3h-6.5v4.1h6.5v2.3h-6.5v5.3h6.5v2.4h-9.2V46.3z"/>
</g>
</svg>
