<?xml version="1.0" encoding="utf-8"?>
<!-- Generator: Adobe Illustrator 23.0.1, SVG Export Plug-In . SVG Version: 6.00 Build 0)  -->
<svg version="1.1" id="Layer_1" xmlns="http://www.w3.org/2000/svg" xmlns:xlink="http://www.w3.org/1999/xlink" x="0px" y="0px"
	 viewBox="0 0 200 80" style="enable-background:new 0 0 200 80;" xml:space="preserve">
<style type="text/css">
	.st0{opacity:0.7;}
</style>
<g class="st0">
	<defs>
		<path id="SVGID_1_" class="st0" d="M77.2,31.4c4.7,4.7,4.7,12.4,0,17.2c-4.7,4.7-12.4,4.7-17.2,0c-4.7-4.7-4.7-12.4,0-17.2
			C64.8,26.7,72.5,26.7,77.2,31.4z M68.7,19.8c5.2,0,10.3,2,14.3,5.9c7.9,7.9,7.9,20.7,0,28.6c-7.9,7.9-20.7,7.9-28.6,0
			c-7.9-7.9-7.9-20.7,0-28.6C58.3,21.8,63.5,19.8,68.7,19.8L68.7,19.8z M119.7,31.4c4.7,4.7,4.7,12.4,0,17.2
			c-4.7,4.7-12.4,4.7-17.2,0c-4.7-4.7-4.7-12.4,0-17.2C107.3,26.7,115,26.7,119.7,31.4z M125.4,25.7c7.9,7.9,7.9,20.7,0,28.6
			c-7.9,7.9-20.7,7.9-28.6,0c-7.9-7.9-7.9-20.7,0-28.6c3.9-3.9,9.1-5.9,14.3-5.9C116.3,19.8,121.5,21.8,125.4,25.7z M18.1,60.1
			l2,0.1h30.3l-0.1-2c-0.3-3.3-2.6-5.8-6-6l-2-0.1H24.2l24.3-24.3l-0.1-2c-0.2-3.4-2.6-5.8-6-6l-2-0.1l-30.3,0l0.1,2
			c0.3,3.3,2.7,5.8,6,6l2,0.1h18.2L12,52.1l0.1,2C12.3,57.5,14.7,59.9,18.1,60.1z M156.6,31.9c0.7,1.2,0.9,2.5,1,4.1l0.1,2v14.2
			l0.1,2c0.2,3.3,2.6,5.8,6,6l2,0.1V38l0.1-2c0.1-1.5,0.3-2.9,1-4.1c1.4-2.4,4-4,7-4c3,0,5.6,1.6,7,4c0.7,1.2,0.9,2.6,1,4l0.1,2
			v14.2l0.1,2c0.2,3.3,2.6,5.8,6,6l2,0.1V38v-2c0-8.9-7.2-16.2-16.2-16.2c-4.8,0-9.2,2.1-12.1,5.5c-3-3.4-7.3-5.5-12.1-5.5
			c-3.4,0-6.5,1-9.1,2.8c-1.6-1.8-5.1-2.8-7.1-2.8v40.4l2-0.1c3.4-0.2,5.8-2.6,6-6l0.1-2V38l0.1-2c0.1-1.5,0.3-2.9,1-4.1
			c1.4-2.4,4-4,7-4C152.5,27.9,155.2,29.5,156.6,31.9z"/>
	</defs>
	<use xlink:href="#SVGID_1_"  style="overflow:visible;fill-rule:evenodd;clip-rule:evenodd;fill:#020202;"/>
	<clipPath id="SVGID_2_">
		<use xlink:href="#SVGID_1_"  style="overflow:visible;"/>
	</clipPath>
</g>
</svg>
