<svg xmlns="http://www.w3.org/2000/svg" viewBox="0 0 50 50"><path d="M25 5C14.4 5 5.6 13.4 5.1 23.9c0 .7.3 1.4.9 1.8.6.4 1.4.4 2 .1s1.1-1 1.1-1.7C9.5 15.7 16.4 9 25 9c4.6 0 8.7 1.9 11.6 5H34c-.7 0-1.4.4-1.8 1-.4.6-.4 1.4 0 2 .4.6 1 1 1.8 1h10V8c0-.5-.2-1.1-.6-1.4-.4-.4-.9-.6-1.4-.6-1.1 0-2 .9-2 2v3.8C36.3 7.6 31 5 25 5zm18 19c-1.1 0-2 .8-2.1 1.9C40.5 34.3 33.6 41 25 41c-4.6 0-8.7-1.9-11.6-5H16c.7 0 1.4-.4 1.8-1 .4-.6.4-1.4 0-2-.4-.6-1-1-1.8-1H6v10c0 .7.4 1.4 1 1.8.6.4 1.4.4 2 0 .6-.4 1-1 1-1.8v-3.8c3.7 4.2 9 6.8 15 6.8 10.6 0 19.4-8.4 19.9-18.9 0-.5-.1-1.1-.5-1.5-.3-.4-.8-.6-1.4-.6z" fill="#fff"/></svg>