<svg xmlns="http://www.w3.org/2000/svg" viewBox="0 0 80 80"><path d="M40 72C22.3 72 8 57.7 8 40S22.3 8 40 8s32 14.3 32 32-14.3 32-32 32m0 4c19.9 0 36-16.1 36-36S59.9 4 40 4 4 20.1 4 40s16.1 36 36 36z"/><g opacity=".5"><path d="M40 54.4c.9 0 1.6-.8 1.6-1.8V39.4c0-1-.7-1.8-1.6-1.8s-1.6.8-1.6 1.8v13.3c0 .9.7 1.7 1.6 1.7z"/><path d="M27.1 39.4c.7.6 1.7.6 2.4 0L40 29.7l10.5 9.8c.7.6 1.7.6 2.4 0 .4-.3.6-.8.6-1.3s-.2-1-.6-1.3L41.2 26c-.3-.3-.8-.5-1.2-.5-.4 0-.9.2-1.2.5L27.1 36.8c-.4.3-.6.8-.6 1.3s.2 1 .6 1.3z"/></g></svg>