<?xml version="1.0" encoding="utf-8"?>
<!-- Generator: Adobe Illustrator 23.0.1, SVG Export Plug-In . SVG Version: 6.00 Build 0)  -->
<svg version="1.1" id="Layer_1" xmlns="http://www.w3.org/2000/svg" xmlns:xlink="http://www.w3.org/1999/xlink" x="0px" y="0px"
	 viewBox="0 0 80 80" style="enable-background:new 0 0 80 80;" xml:space="preserve">
<style type="text/css">
	.st0{opacity:0.5;}
</style>
<g class="st0">
	<path d="M40,72C22.3,72,8,57.7,8,40S22.3,8,40,8s32,14.3,32,32S57.7,72,40,72 M40,76c19.9,0,36-16.1,36-36S59.9,4,40,4S4,20.1,4,40
		S20.1,76,40,76L40,76z"/>
</g>
<g class="st0">
	<g>
		<path d="M40,54.4c0.9,0,1.6-0.8,1.6-1.8V39.4c0-1-0.7-1.8-1.6-1.8s-1.6,0.8-1.6,1.8v13.3C38.4,53.6,39.1,54.4,40,54.4z"/>
		<path d="M27.1,39.4c0.7,0.6,1.7,0.6,2.4,0L40,29.7l10.5,9.8c0.7,0.6,1.7,0.6,2.4,0c0.4-0.3,0.6-0.8,0.6-1.3c0-0.5-0.2-1-0.6-1.3
			L41.2,26c-0.3-0.3-0.8-0.5-1.2-0.5l0,0c-0.4,0-0.9,0.2-1.2,0.5L27.1,36.8c-0.4,0.3-0.6,0.8-0.6,1.3C26.5,38.6,26.7,39.1,27.1,39.4
			z"/>
	</g>
</g>
</svg>
